<svg width="24" height="24" viewBox="0 0 24 24" fill="none" xmlns="http://www.w3.org/2000/svg">
<g clip-path="url(#clip0_88_2387)">
<path d="M17.3643 23.3176L15.3231 24H8.72836L6.51807 23.3197C6.64557 21.9739 6.81554 21.4455 6.91983 20.7554C6.98068 20.359 6.69854 20.0079 7.04283 19.8017C7.39486 19.5907 7.75754 19.4033 8.11871 19.2372C8.43066 19.0938 8.74163 18.9658 9.04393 18.8528C10.2507 18.3999 11.3232 19.1754 11.7844 19.0924C11.9438 19.0634 12.1055 19.0634 12.2644 19.0924C12.7255 19.1754 13.7981 18.3999 15.0048 18.8528C15.6577 19.0972 16.3502 19.4086 17.006 19.8017C17.3503 20.0079 16.8725 20.359 16.9334 20.7554C17.0377 21.4454 17.2363 21.9718 17.3643 23.3176Z" fill="url(#paint0_linear_88_2387)"/>
<path d="M10.072 21.7075C10.072 21.7075 10.4053 22.3113 10.9439 22.9584C11.2468 23.3223 11.6145 23.2318 12.0244 23.5234C12.4342 23.2318 12.8019 23.3224 13.1048 22.9585C13.6434 22.3114 13.9768 21.7075 13.9768 21.7075V19.237H10.072V21.7075Z" fill="#ECF4FF"/>
<path d="M13.1046 22.9584C12.8019 23.3223 12.4341 23.6999 12.0243 23.9917C11.6145 23.6999 11.2467 23.3223 10.944 22.9584L12.0243 21.3974L13.1046 22.9584Z" fill="#D57080"/>
<path d="M10.072 20.0425L12.0245 21.9195L13.977 20.0425L12.0247 18.5995" fill="#D57080"/>
<path d="M8.72839 23.9912L8.72628 24H6.00275C6.13025 22.6542 6.30022 21.4455 6.40451 20.7554C6.46536 20.3589 6.69861 20.0079 7.0429 19.8017C7.26551 19.9161 7.46061 20.0538 7.63203 20.2078C8.42557 20.9208 8.70406 21.983 8.8002 22.7119C8.85654 23.1389 8.82917 23.5725 8.72839 23.9912Z" fill="url(#paint1_linear_88_2387)"/>
<path d="M18.0467 24H15.3232C15.3187 23.9815 15.3144 23.9635 15.3101 23.9459C15.2211 23.5802 15.1932 23.2018 15.2351 22.8277C15.3332 21.9505 15.6963 20.4756 17.0061 19.8017C17.3504 20.0079 17.5836 20.359 17.6445 20.7554C17.7488 21.4454 17.9187 22.6542 18.0467 24Z" fill="url(#paint2_linear_88_2387)"/>
<path d="M15.0049 18.8529L13.977 21.7075L12.0245 19.8304L10.0721 21.7075L9.04419 18.8529C10.2508 18.3999 11.3235 18.1764 11.7847 18.0933C11.9437 18.0643 12.1055 18.0643 12.2645 18.0933C12.7256 18.1763 13.7983 18.3998 15.0049 18.8529Z" fill="url(#paint3_linear_88_2387)"/>
<path d="M19.3151 10.7113L17.1234 13.2108L8.61281 10.8632L4.24659 10.9253C4.24659 10.9253 2.05373 7.71909 2.71833 4.5855C3.38292 1.45266 7.41834 3.35138 7.41834 3.35138C7.41834 3.35138 9.61341 0 12.509 0C16.8116 0 18.6228 4.11103 20.5694 2.63963C20.5694 2.63963 23.1222 7.46541 19.3151 10.7113Z" fill="url(#paint4_linear_88_2387)"/>
<path d="M8.6128 10.8632L6.12884 12.1702L4.24653 10.9254C4.24653 10.9254 2.05367 7.71915 2.71827 4.58556C3.38291 1.45267 7.41833 3.35139 7.41833 3.35139C7.41833 3.35139 6.03453 5.66472 8.54244 7.51108C9.35145 8.10606 9.19578 9.39334 8.6128 10.8632Z" fill="url(#paint5_linear_88_2387)"/>
<path d="M13.5069 15.8726V18.3482C13.5069 19.1667 12.8432 19.8304 12.0247 19.8304C11.2058 19.8304 10.5421 19.1667 10.5421 18.3482V15.8726H13.5069Z" fill="url(#paint6_linear_88_2387)"/>
<path d="M5.83186 13.8113C4.76306 13.8113 3.89667 12.9448 3.89667 11.8761C3.89667 11.729 3.91307 11.5857 3.94415 11.448C4.19521 10.3362 5.83186 10.5185 5.83186 11.6583H18.2172C18.2172 10.5185 19.8538 10.3361 20.1049 11.448C20.1359 11.5857 20.1524 11.729 20.1524 11.8761C20.1524 12.9449 19.2859 13.8113 18.2172 13.8113" fill="#FFCBBE"/>
<path d="M5.83216 12.7396C5.71844 12.7396 5.60655 12.6862 5.53605 12.5864C5.5323 12.5812 5.44685 12.4648 5.31808 12.3765C5.14563 12.2583 5.03233 12.2823 4.96202 12.3106C4.77649 12.3855 4.56546 12.2958 4.49064 12.1103C4.41579 11.9248 4.5055 11.7137 4.69099 11.6389C5.03772 11.499 5.41441 11.5548 5.75168 11.796C5.97658 11.9567 6.11388 12.1487 6.12879 12.1701C6.2433 12.3341 6.20313 12.5599 6.03911 12.6744C5.97602 12.7185 5.90374 12.7396 5.83216 12.7396Z" fill="#EAAC9D"/>
<path d="M18.2169 12.7409C18.1452 12.7409 18.0726 12.7196 18.0093 12.6753C17.8453 12.5609 17.8057 12.3341 17.9203 12.1701C17.9352 12.1487 18.0725 11.9567 18.2974 11.796C18.6347 11.5548 19.0113 11.499 19.3581 11.6389C19.5435 11.7137 19.6333 11.9248 19.5584 12.1103C19.4836 12.2957 19.2726 12.3854 19.087 12.3106C19.0167 12.2823 18.9034 12.2583 18.731 12.3765C18.5999 12.4664 18.5137 12.5854 18.5128 12.5866C18.4426 12.6872 18.3307 12.7409 18.2169 12.7409Z" fill="#EAAC9D"/>
<path d="M18.2172 9.38508V12.8547C18.2172 15.3477 16.1965 17.3684 13.7035 17.3684H10.3454C7.8524 17.3684 5.83167 15.3477 5.83167 12.8547V9.38508C7.43104 9.38508 8.72802 8.08885 8.72802 6.48947C8.72802 6.48947 8.75123 6.51117 8.79688 6.55083C9.28185 6.96919 12.3391 9.38508 18.2172 9.38508Z" fill="url(#paint7_linear_88_2387)"/>
<path d="M9.12076 9.82086C8.7984 9.82086 8.53613 10.2562 8.53613 10.7913C8.53613 11.3263 8.7984 11.7617 9.12076 11.7617C9.44316 11.7617 9.70543 11.3263 9.70543 10.7913C9.70543 10.2562 9.44316 9.82086 9.12076 9.82086Z" fill="#2B4D66"/>
<path d="M14.9283 11.7617C15.2512 11.7617 15.5129 11.3272 15.5129 10.7913C15.5129 10.2553 15.2512 9.82086 14.9283 9.82086C14.6054 9.82086 14.3437 10.2553 14.3437 10.7913C14.3437 11.3272 14.6054 11.7617 14.9283 11.7617Z" fill="#2B4D66"/>
<path d="M16.1097 13.3549C16.6695 13.3549 17.1234 13.0789 17.1234 12.7385C17.1234 12.398 16.6695 12.1221 16.1097 12.1221C15.5498 12.1221 15.0959 12.398 15.0959 12.7385C15.0959 13.0789 15.5498 13.3549 16.1097 13.3549Z" fill="#EAAFA5"/>
<path d="M7.93932 13.3549C8.49918 13.3549 8.95304 13.0789 8.95304 12.7385C8.95304 12.398 8.49918 12.1221 7.93932 12.1221C7.37946 12.1221 6.9256 12.398 6.9256 12.7385C6.9256 13.0789 7.37946 13.3549 7.93932 13.3549Z" fill="#EAAFA5"/>
<path d="M12.0246 14.8142C11.6141 14.8142 11.2283 14.6544 10.938 14.3642C10.7965 14.2228 10.7965 13.9934 10.938 13.852C11.0795 13.7106 11.3088 13.7106 11.4502 13.852C11.6036 14.0054 11.8076 14.0899 12.0246 14.0899C12.2415 14.0899 12.4455 14.0054 12.5989 13.852C12.7404 13.7106 12.9697 13.7106 13.1111 13.852C13.2526 13.9934 13.2526 14.2227 13.1111 14.3642C12.8209 14.6544 12.435 14.8142 12.0246 14.8142Z" fill="#D57080"/>
</g>
<defs>
<linearGradient id="paint0_linear_88_2387" x1="11.9412" y1="18.7099" x2="11.9412" y2="24" gradientUnits="userSpaceOnUse">
<stop stop-color="#5766CB"/>
<stop offset="1" stop-color="#273592"/>
</linearGradient>
<linearGradient id="paint1_linear_88_2387" x1="7.4159" y1="19.8017" x2="7.4159" y2="24" gradientUnits="userSpaceOnUse">
<stop stop-color="#ECF4FF"/>
<stop offset="1" stop-color="#B9D0EF"/>
</linearGradient>
<linearGradient id="paint2_linear_88_2387" x1="16.6313" y1="19.8017" x2="16.6313" y2="24" gradientUnits="userSpaceOnUse">
<stop stop-color="#ECF4FF"/>
<stop offset="1" stop-color="#B9D0EF"/>
</linearGradient>
<linearGradient id="paint3_linear_88_2387" x1="12.0245" y1="18.0716" x2="12.0245" y2="21.7075" gradientUnits="userSpaceOnUse">
<stop stop-color="#DDEAFB"/>
<stop offset="1" stop-color="#87A0C1"/>
</linearGradient>
<linearGradient id="paint4_linear_88_2387" x1="12" y1="0" x2="12" y2="13.2108" gradientUnits="userSpaceOnUse">
<stop stop-color="#9D6B6B"/>
<stop offset="1" stop-color="#813434"/>
</linearGradient>
<linearGradient id="paint5_linear_88_2387" x1="5.84647" y1="2.78131" x2="5.84647" y2="12.1702" gradientUnits="userSpaceOnUse">
<stop stop-color="#8B5E5E"/>
<stop offset="1" stop-color="#813434"/>
</linearGradient>
<linearGradient id="paint6_linear_88_2387" x1="12.0245" y1="15.8726" x2="12.0245" y2="19.8304" gradientUnits="userSpaceOnUse">
<stop stop-color="#FFBDAD"/>
<stop offset="1" stop-color="#EFA08C"/>
</linearGradient>
<linearGradient id="paint7_linear_88_2387" x1="12.0244" y1="6.48947" x2="12.0244" y2="17.3684" gradientUnits="userSpaceOnUse">
<stop stop-color="#FFDDCE"/>
<stop offset="1" stop-color="#FFBDAD"/>
</linearGradient>
<clipPath id="clip0_88_2387">
<rect width="24" height="24" fill="white"/>
</clipPath>
</defs>
</svg>
