<svg width="24" height="24" viewBox="0 0 24 24" fill="none" xmlns="http://www.w3.org/2000/svg">
<path d="M22.3555 10.754V22.3555L19.7773 19.7774H12.4727C11.7607 19.7774 11.1836 19.2003 11.1836 18.4883V12.6016H4.48962L2.1003 14.991C1.69425 15.397 1 15.1095 1 14.5352V2.93365C1 1.86575 1.86569 1.00006 2.93359 1.00006H11.5273C12.5952 1.00006 13.4609 1.86575 13.4609 2.93365V9.4649H21.0664C21.7784 9.4649 22.3555 10.042 22.3555 10.754Z" fill="url(#paint0_linear_81_2696)"/>
<path d="M9.49355 9.98199C9.8266 9.85631 9.9947 9.48446 9.86901 9.1514L7.95046 4.06756C7.94822 4.06167 7.94595 4.05583 7.94354 4.05003C7.82568 3.76334 7.5493 3.57819 7.23937 3.57819H7.23864C6.94641 3.57819 6.67961 3.74576 6.55354 4.00942C6.54409 4.02919 6.53584 4.04723 6.52884 4.06592L4.59266 9.14956C4.46599 9.48222 4.63293 9.85459 4.96559 9.98126C5.29825 10.108 5.67062 9.941 5.79729 9.60833L6.12141 8.75738H8.3425L8.66297 9.60653C8.78869 9.93958 9.16054 10.1077 9.49355 9.98199ZM6.61241 7.46836L7.23709 5.8282L7.8561 7.46836H6.61241ZM21.0665 8.81908H12.4727C11.4048 8.81908 10.5391 9.68478 10.5391 10.7527V18.4871C10.5391 19.555 11.4048 20.4206 12.4727 20.4206H19.5104L21.8997 22.81C22.3058 23.2161 23 22.9285 23 22.3542V10.7527C23 9.68478 22.1344 8.81908 21.0665 8.81908ZM19.7774 17.8438H18.4883C17.8116 17.8438 17.2008 17.5574 16.7696 17.1C16.3383 17.5574 15.7276 17.8438 15.0508 17.8438H13.7618C13.4058 17.8438 13.1172 17.5552 13.1172 17.1993C13.1172 16.8433 13.4058 16.5547 13.7618 16.5547H15.0508C15.6432 16.5547 16.125 16.0729 16.125 15.4805V15.2657H14.6211C14.2652 15.2657 13.9766 14.9771 13.9766 14.6212C13.9766 14.2652 14.2652 13.9766 14.6211 13.9766H16.125V12.6876H15.4805C15.1246 12.6876 14.836 12.399 14.836 12.043C14.836 11.6871 15.1246 11.3985 15.4805 11.3985H18.0586C18.4146 11.3985 18.7032 11.6871 18.7032 12.043C18.7032 12.399 18.4146 12.6876 18.0586 12.6876H17.4141V13.9766H18.918C19.274 13.9766 19.5625 14.2652 19.5625 14.6212C19.5625 14.9771 19.274 15.2657 18.918 15.2657H17.4141V15.4805C17.4141 16.0729 17.896 16.5547 18.4883 16.5547H19.7774C20.1333 16.5547 20.4219 16.8433 20.4219 17.1993C20.4219 17.5552 20.1333 17.8438 19.7774 17.8438Z" fill="url(#paint1_linear_81_2696)"/>
<defs>
<linearGradient id="paint0_linear_81_2696" x1="11.6777" y1="22.3555" x2="11.6777" y2="1.00006" gradientUnits="userSpaceOnUse">
<stop stop-color="#5558FF"/>
<stop offset="1" stop-color="#00C0FF"/>
</linearGradient>
<linearGradient id="paint1_linear_81_2696" x1="13.7752" y1="23.0001" x2="13.7752" y2="3.57819" gradientUnits="userSpaceOnUse">
<stop stop-color="#ADDCFF"/>
<stop offset="0.5028" stop-color="#EAF6FF"/>
<stop offset="1" stop-color="#EAF6FF"/>
</linearGradient>
</defs>
</svg>
