<svg width="24" height="26" viewBox="0 0 24 26" fill="none" xmlns="http://www.w3.org/2000/svg">
<path d="M11.75 5.20001C6.3875 5.20001 2 9.58751 2 14.95C2 20.3125 6.3875 24.7 11.75 24.7C17.1125 24.7 21.5 20.3125 21.5 14.95C21.5 9.58751 17.1125 5.20001 11.75 5.20001ZM16.625 15.6464H11.75C11.3321 15.6464 11.0536 15.3679 11.0536 14.95V8.68216C11.0536 8.2643 11.3321 7.98573 11.75 7.98573C12.1679 7.98573 12.4464 8.2643 12.4464 8.68216V14.2536H16.625C17.0429 14.2536 17.3214 14.5322 17.3214 14.95C17.3214 15.3679 17.0429 15.6464 16.625 15.6464Z" fill="#3A52EE"/>
</svg>
