<svg width="26" height="26" viewBox="0 0 26 26" fill="none" xmlns="http://www.w3.org/2000/svg">
<g clip-path="url(#clip0_3690_3296)">
<path d="M24.5561 10.8264L14.3588 10.8259C13.9085 10.8259 13.5435 11.1909 13.5435 11.6412V14.8987C13.5435 15.3489 13.9085 15.714 14.3588 15.714H20.1012C19.4724 17.3458 18.2988 18.7125 16.8014 19.5809L19.25 23.8196C23.1778 21.5479 25.5 17.5622 25.5 13.1003C25.5 12.465 25.4532 12.0109 25.3595 11.4995C25.2883 11.111 24.951 10.8264 24.5561 10.8264Z" fill="#167EE6"/>
<path d="M13 20.6086C10.1898 20.6086 7.73644 19.0731 6.41881 16.801L2.18024 19.2441C4.33722 22.9825 8.37794 25.4999 13 25.4999C15.2674 25.4999 17.4069 24.8894 19.25 23.8255V23.8197L16.8014 19.5809C15.6814 20.2305 14.3853 20.6086 13 20.6086Z" fill="#12B347"/>
<path d="M19.25 23.8254V23.8196L16.8014 19.5808C15.6814 20.2304 14.3854 20.6085 13 20.6085V25.4998C15.2674 25.4998 17.407 24.8893 19.25 23.8254Z" fill="#0F993E"/>
<path d="M5.39131 13.0003C5.39131 11.6151 5.76934 10.3191 6.4188 9.19917L2.18022 6.7561C1.11045 8.59336 0.5 10.7271 0.5 13.0003C0.5 15.2735 1.11045 17.4072 2.18022 19.2445L6.4188 16.8014C5.76934 15.6814 5.39131 14.3855 5.39131 13.0003Z" fill="#FFD500"/>
<path d="M13 5.39131C14.8326 5.39131 16.5159 6.04248 17.8307 7.12564C18.155 7.39282 18.6265 7.37354 18.9236 7.07642L21.2317 4.76831C21.5688 4.4312 21.5448 3.87939 21.1847 3.56699C18.9818 1.65591 16.1156 0.5 13 0.5C8.37794 0.5 4.33722 3.01743 2.18024 6.75581L6.41881 9.19888C7.73644 6.92676 10.1898 5.39131 13 5.39131Z" fill="#FF4B26"/>
<path d="M17.8307 7.12563C18.155 7.39282 18.6265 7.37353 18.9236 7.07642L21.2317 4.76831C21.5687 4.4312 21.5447 3.87939 21.1847 3.56699C18.9818 1.65586 16.1156 0.5 13 0.5V5.39131C14.8325 5.39131 16.5159 6.04248 17.8307 7.12563Z" fill="#D93F21"/>
</g>
<defs>
<clipPath id="clip0_3690_3296">
<rect width="25" height="25" fill="white" transform="translate(0.5 0.5)"/>
</clipPath>
</defs>
</svg>
