<svg width="24" height="26" viewBox="0 0 24 26" fill="none" xmlns="http://www.w3.org/2000/svg">
<path d="M12.75 7.66071C11.9634 7.66071 11.1944 7.88849 10.5403 8.31527C9.88629 8.74204 9.37651 9.34862 9.07548 10.0583C8.77445 10.768 8.69569 11.5489 8.84915 12.3024C9.00262 13.0558 9.38141 13.7478 9.93765 14.291C10.4939 14.8342 11.2026 15.2041 11.9741 15.3539C12.7456 15.5038 13.5453 15.4269 14.272 15.1329C14.9988 14.839 15.62 14.3411 16.057 13.7024C16.494 13.0637 16.7273 12.3128 16.7273 11.5446C16.7261 10.5149 16.3067 9.5277 15.561 8.79957C14.8154 8.07145 13.8045 7.66188 12.75 7.66071ZM12.75 13.875C12.278 13.875 11.8166 13.7383 11.4242 13.4823C11.0318 13.2262 10.7259 12.8622 10.5453 12.4364C10.3647 12.0106 10.3174 11.542 10.4095 11.09C10.5016 10.638 10.7288 10.2227 11.0626 9.89682C11.3963 9.57092 11.8215 9.34897 12.2844 9.25905C12.7474 9.16914 13.2272 9.21529 13.6632 9.39166C14.0993 9.56804 14.472 9.86673 14.7342 10.25C14.9964 10.6332 15.1364 11.0837 15.1364 11.5446C15.1356 12.1625 14.884 12.7548 14.4366 13.1917C13.9892 13.6285 13.3827 13.8743 12.75 13.875Z" fill="#3A52EE" stroke="#3A52EE" stroke-width="0.00064"/>
<path d="M12.75 3C10.4302 3.00256 8.20609 3.90362 6.56571 5.50549C4.92533 7.10737 4.00262 9.27925 4 11.5446C4 14.5932 5.44283 17.8248 8.17245 20.8903C9.40082 22.2754 10.7831 23.5228 12.2938 24.6096C12.4275 24.701 12.5868 24.75 12.75 24.75C12.9132 24.75 13.0725 24.701 13.2062 24.6096C14.7169 23.5228 16.0992 22.2754 17.3276 20.8903C20.0572 17.8248 21.5 14.5932 21.5 11.5446C21.4974 9.27925 20.5747 7.10737 18.9343 5.50549C17.2939 3.90362 15.0698 3.00256 12.75 3ZM12.75 23.0002C11.1061 21.7412 5.59091 17.1018 5.59091 11.5446C5.59091 9.6905 6.34517 7.91229 7.68776 6.60121C9.03035 5.29013 10.8513 4.55357 12.75 4.55357C14.6487 4.55357 16.4697 5.29013 17.8122 6.60121C19.1548 7.91229 19.9091 9.6905 19.9091 11.5446C19.9091 17.1018 14.3936 21.7414 12.75 23.0002Z" fill="#3A52EE" stroke="#3A52EE" stroke-width="0.00064"/>
<path fill-rule="evenodd" clip-rule="evenodd" d="M12.5 3C7.68642 3 4 6.44819 4 10.75C4 13.1605 5.19024 15.6717 6.70607 17.7793C8.23107 19.8996 10.1842 21.7488 11.9107 22.832C12.2675 23.056 12.7325 23.056 13.0893 22.832C14.8158 21.7488 16.769 19.8996 18.2939 17.7793C19.8097 15.6717 21 13.1605 21 10.75C21 6.44819 17.3136 3 12.5 3ZM9.3125 11C9.3125 9.34315 10.7397 8 12.5 8C14.2604 8 15.6875 9.34315 15.6875 11C15.6875 12.6568 14.2604 14 12.5 14C10.7397 14 9.3125 12.6568 9.3125 11Z" fill="#3A52EE" stroke="black" stroke-width="0.00064"/>
</svg>
