<svg width="24" height="24" viewBox="0 0 24 24" fill="none" xmlns="http://www.w3.org/2000/svg">
<path d="M22.375 4.375C22.375 4.9189 22.2137 5.45058 21.9115 5.90282C21.6094 6.35505 21.1799 6.70753 20.6774 6.91567C20.1749 7.12381 19.6219 7.17827 19.0885 7.07216C18.5551 6.96605 18.0651 6.70414 17.6805 6.31954C17.2959 5.93495 17.034 5.44495 16.9278 4.9115C16.8217 4.37805 16.8762 3.82512 17.0843 3.32262C17.2925 2.82012 17.6449 2.39063 18.0972 2.08846C18.5494 1.78628 19.0811 1.625 19.625 1.625C20.3541 1.62574 21.0532 1.91571 21.5687 2.43128C22.0843 2.94684 22.3743 3.64588 22.375 4.375Z" fill="url(#paint0_linear_88_2415)"/>
<path opacity="0.4" d="M21.6246 7.81885L21.6242 14.3394C21.6222 15.6634 21.0943 16.9324 20.1566 17.8672C19.219 18.802 17.9484 19.3261 16.6244 19.3242H15.1252C14.9701 19.3241 14.8171 19.3601 14.6783 19.4293C14.5394 19.4985 14.4186 19.599 14.3252 19.723L12.8253 21.717C12.6967 21.9186 12.5194 22.0847 12.3096 22.1997C12.0999 22.3147 11.8645 22.375 11.6253 22.375C11.3862 22.375 11.1508 22.3147 10.9411 22.1997C10.7313 22.0847 10.554 21.9186 10.4254 21.717L8.92548 19.723C8.82621 19.6057 8.70407 19.5098 8.56653 19.4413C8.42899 19.3727 8.27892 19.3329 8.12548 19.3242H6.62494C5.30097 19.3262 4.03043 18.8021 3.0928 17.8674C2.15517 16.9327 1.62723 15.6637 1.62512 14.3398L1.625 13.3418L1.62537 7.35977C1.62741 6.03574 2.15531 4.76676 3.09295 3.83194C4.03059 2.89713 5.30116 2.37306 6.62518 2.37501H16.1813C15.8211 2.98023 15.629 3.67069 15.625 4.37501C15.6261 5.43552 16.0479 6.45228 16.7978 7.20218C17.5477 7.95209 18.5645 8.37388 19.625 8.37501C20.3292 8.371 21.0195 8.17899 21.6246 7.81885Z" fill="url(#paint1_linear_88_2415)"/>
<path d="M11.6279 12.375H11.6221C11.3571 12.3742 11.1033 12.2683 10.9163 12.0806C10.7294 11.8928 10.6246 11.6385 10.625 11.3735C10.6254 11.1086 10.7309 10.8546 10.9184 10.6674C11.1059 10.4802 11.36 10.375 11.625 10.375C11.89 10.375 12.1441 10.4802 12.3316 10.6674C12.5191 10.8546 12.6246 11.1086 12.625 11.3735C12.6254 11.6385 12.5206 11.8928 12.3337 12.0806C12.1467 12.2683 11.8929 12.3742 11.6279 12.375Z" fill="url(#paint2_linear_88_2415)"/>
<path d="M15.6279 12.375H15.6221C15.3571 12.3742 15.1033 12.2683 14.9163 12.0806C14.7294 11.8928 14.6246 11.6385 14.625 11.3735C14.6254 11.1086 14.7309 10.8546 14.9184 10.6674C15.1059 10.4802 15.36 10.375 15.625 10.375C15.89 10.375 16.1441 10.4802 16.3316 10.6674C16.5191 10.8546 16.6246 11.1086 16.625 11.3735C16.6254 11.6385 16.5206 11.8928 16.3337 12.0806C16.1467 12.2683 15.8929 12.3742 15.6279 12.375Z" fill="url(#paint3_linear_88_2415)"/>
<path d="M7.62793 12.375H7.62207C7.35711 12.3742 7.10329 12.2683 6.91634 12.0806C6.7294 11.8928 6.62461 11.6385 6.625 11.3735C6.62539 11.1086 6.73092 10.8546 6.91841 10.6674C7.10591 10.4802 7.36004 10.375 7.625 10.375C7.88996 10.375 8.14409 10.4802 8.33159 10.6674C8.51908 10.8546 8.62461 11.1086 8.625 11.3735C8.62539 11.6385 8.5206 11.8928 8.33366 12.0806C8.14671 12.2683 7.89289 12.3742 7.62793 12.375Z" fill="url(#paint4_linear_88_2415)"/>
<defs>
<linearGradient id="paint0_linear_88_2415" x1="16.875" y1="4.375" x2="22.375" y2="4.375" gradientUnits="userSpaceOnUse">
<stop stop-color="#16B0E2"/>
<stop offset="1" stop-color="#6E5AF0"/>
</linearGradient>
<linearGradient id="paint1_linear_88_2415" x1="1.625" y1="12.375" x2="21.625" y2="12.375" gradientUnits="userSpaceOnUse">
<stop stop-color="#16B0E2"/>
<stop offset="1" stop-color="#6E5AF0"/>
</linearGradient>
<linearGradient id="paint2_linear_88_2415" x1="10.622" y1="11.375" x2="12.625" y2="11.375" gradientUnits="userSpaceOnUse">
<stop stop-color="#16B0E2"/>
<stop offset="1" stop-color="#6E5AF0"/>
</linearGradient>
<linearGradient id="paint3_linear_88_2415" x1="14.622" y1="11.375" x2="16.625" y2="11.375" gradientUnits="userSpaceOnUse">
<stop stop-color="#16B0E2"/>
<stop offset="1" stop-color="#6E5AF0"/>
</linearGradient>
<linearGradient id="paint4_linear_88_2415" x1="6.622" y1="11.375" x2="8.625" y2="11.375" gradientUnits="userSpaceOnUse">
<stop stop-color="#16B0E2"/>
<stop offset="1" stop-color="#6E5AF0"/>
</linearGradient>
</defs>
</svg>
