<svg width="24" height="26" viewBox="0 0 24 26" fill="none" xmlns="http://www.w3.org/2000/svg">
<path d="M12.447 10.3373C12.2057 10.3373 11.9699 10.408 11.7693 10.5405C11.5688 10.6729 11.4124 10.8612 11.3201 11.0815C11.2278 11.3017 11.2036 11.5441 11.2507 11.7779C11.2978 12.0118 11.4139 12.2265 11.5845 12.3951C11.7551 12.5637 11.9724 12.6785 12.209 12.725C12.4456 12.7715 12.6909 12.7477 12.9137 12.6564C13.1366 12.5652 13.3271 12.4107 13.4611 12.2125C13.5951 12.0142 13.6667 11.7812 13.6667 11.5428C13.6663 11.2232 13.5377 10.9168 13.309 10.6908C13.0804 10.4648 12.7703 10.3377 12.447 10.3373ZM12.447 12.266C12.3022 12.266 12.1607 12.2236 12.0404 12.1441C11.92 12.0647 11.8262 11.9517 11.7709 11.8195C11.7155 11.6874 11.701 11.542 11.7292 11.4017C11.7575 11.2614 11.8272 11.1325 11.9295 11.0313C12.0318 10.9302 12.1622 10.8613 12.3042 10.8334C12.4462 10.8055 12.5933 10.8198 12.727 10.8746C12.8607 10.9293 12.975 11.022 13.0555 11.1409C13.1359 11.2599 13.1788 11.3997 13.1788 11.5428C13.1786 11.7345 13.1014 11.9183 12.9642 12.0539C12.827 12.1895 12.641 12.2658 12.447 12.266Z" fill="#666666" stroke="#666666" stroke-width="2.3"/>
<path d="M12.5 3C10.1801 3.00256 7.95606 3.90362 6.31569 5.50549C4.67531 7.10737 3.7526 9.27925 3.74998 11.5446C3.74998 14.5932 5.19281 17.8248 7.92242 20.8903C9.1508 22.2754 10.5331 23.5228 12.0438 24.6096C12.1775 24.701 12.3368 24.75 12.5 24.75C12.6632 24.75 12.8225 24.701 12.9562 24.6096C14.4669 23.5228 15.8492 22.2754 17.0775 20.8903C19.8071 17.8248 21.25 14.5932 21.25 11.5446C21.2474 9.27925 20.3246 7.10737 18.6843 5.50549C17.0439 3.90362 14.8198 3.00256 12.5 3ZM12.5 23.0002C10.856 21.7412 5.34089 17.1018 5.34089 11.5446C5.34089 9.6905 6.09514 7.91229 7.43773 6.60121C8.78032 5.29013 10.6013 4.55357 12.5 4.55357C14.3987 4.55357 16.2196 5.29013 17.5622 6.60121C18.9048 7.91229 19.6591 9.6905 19.6591 11.5446C19.6591 17.1018 14.1436 21.7414 12.5 23.0002Z" fill="#666666" stroke="black" stroke-width="0.00064"/>
</svg>
