<svg width="24" height="24" viewBox="0 0 24 24" fill="none" xmlns="http://www.w3.org/2000/svg">
<path d="M21.0982 22.0001H2.9018C2.40376 22.0001 2 21.5963 2 21.0983V2.9019C2 2.40386 2.40376 2.00009 2.9018 2.00009H21.0982C21.5962 2.00009 22 2.40386 22 2.9019V21.0983C22 21.5963 21.5962 22.0001 21.0982 22.0001Z" fill="url(#paint0_linear_88_1789)"/>
<path d="M2 9.10602H22V12.3295H2V9.10602Z" fill="url(#paint1_linear_88_1789)"/>
<path d="M2 15.553H22V18.7765H2V15.553Z" fill="url(#paint2_linear_88_1789)"/>
<path d="M22 18.7766V21.0981C22 21.5962 21.5961 22.0001 21.098 22.0001H2.90196C2.40392 22.0001 2 21.5962 2 21.0981V18.7766H22Z" fill="url(#paint3_linear_88_1789)"/>
<path d="M21.0982 2.00009H2.9018C2.40376 2.00009 2 2.40386 2 2.9019V5.92166H22V2.9019C22 2.40386 21.5962 2.00009 21.0982 2.00009Z" fill="url(#paint4_linear_88_1789)"/>
<path d="M8.06838 4.65904H4.1725C3.66124 4.65904 3.30332 4.18359 3.47277 3.72959C3.57713 3.44999 3.85767 3.26285 4.1725 3.26285H8.06838C8.57964 3.26285 8.93756 3.7383 8.76811 4.1923C8.66379 4.47195 8.38324 4.65904 8.06838 4.65904Z" fill="#814AA0"/>
<path d="M14.5631 3.96085C14.5631 4.16368 14.7275 4.32811 14.9304 4.32811H18.4662C18.6691 4.32811 18.8335 4.16368 18.8335 3.96085C18.8335 3.75803 18.6691 3.5936 18.4662 3.5936H14.9304C14.7275 3.5936 14.5631 3.75803 14.5631 3.96085Z" fill="#D9B1EE"/>
<path d="M19.2072 3.96079C19.2072 4.16361 19.3716 4.32805 19.5744 4.32805H20.2028C20.4057 4.32805 20.5701 4.16361 20.5701 3.96079C20.5701 3.75797 20.4057 3.59354 20.2028 3.59354H19.5744C19.3716 3.59354 19.2072 3.75797 19.2072 3.96079Z" fill="#D9B1EE"/>
<path d="M4.51067 8.60233C5.10737 8.60233 5.5911 8.1186 5.5911 7.5219C5.5911 6.92519 5.10737 6.44147 4.51067 6.44147C3.91396 6.44147 3.43024 6.92519 3.43024 7.5219C3.43024 8.1186 3.91396 8.60233 4.51067 8.60233Z" fill="url(#paint5_linear_88_1789)"/>
<path d="M4.51073 8.60228C5.10743 8.60228 5.59116 8.11856 5.59116 7.52185H3.4303C3.4303 8.11856 3.91402 8.60228 4.51073 8.60228Z" fill="url(#paint6_linear_88_1789)"/>
<path d="M7.7005 7.5218C7.7005 7.72462 7.86493 7.88905 8.06776 7.88905H11.6036C11.8065 7.88905 11.9709 7.72462 11.9709 7.5218C11.9709 7.31897 11.8065 7.15454 11.6036 7.15454H8.06776C7.86493 7.15454 7.7005 7.31897 7.7005 7.5218Z" fill="#7BACDF"/>
<path d="M14.1869 7.52186C14.1869 7.72468 14.3513 7.88911 14.5541 7.88911H15.1826C15.3854 7.88911 15.5498 7.72468 15.5498 7.52186C15.5498 7.31903 15.3854 7.1546 15.1826 7.1546H14.5541C14.3513 7.1546 14.1869 7.31903 14.1869 7.52186Z" fill="#7BACDF"/>
<path d="M16.6967 7.52186C16.6967 7.72468 16.8611 7.88911 17.0639 7.88911H17.6923C17.8952 7.88911 18.0596 7.72468 18.0596 7.52186C18.0596 7.31903 17.8952 7.1546 17.6923 7.1546H17.0639C16.8611 7.1546 16.6967 7.31903 16.6967 7.52186Z" fill="#7BACDF"/>
<path d="M19.2064 7.52186C19.2064 7.72468 19.3709 7.88911 19.5737 7.88911H20.2021C20.4049 7.88911 20.5694 7.72468 20.5694 7.52186C20.5694 7.31903 20.4049 7.1546 20.2021 7.1546H19.5737C19.3709 7.1546 19.2064 7.31903 19.2064 7.52186Z" fill="#7BACDF"/>
<path d="M4.51067 15.0729C5.10737 15.0729 5.5911 14.5892 5.5911 13.9925C5.5911 13.3958 5.10737 12.9121 4.51067 12.9121C3.91396 12.9121 3.43024 13.3958 3.43024 13.9925C3.43024 14.5892 3.91396 15.0729 4.51067 15.0729Z" fill="url(#paint7_linear_88_1789)"/>
<path d="M4.51073 15.0729C5.10743 15.0729 5.59116 14.5892 5.59116 13.9925H3.4303C3.4303 14.5892 3.91402 15.0729 4.51073 15.0729Z" fill="url(#paint8_linear_88_1789)"/>
<path d="M7.7005 13.9926C7.7005 14.1954 7.86493 14.3598 8.06776 14.3598H11.6036C11.8065 14.3598 11.9709 14.1954 11.9709 13.9926C11.9709 13.7897 11.8065 13.6253 11.6036 13.6253H8.06776C7.86493 13.6253 7.7005 13.7897 7.7005 13.9926Z" fill="#7BACDF"/>
<path d="M14.1869 13.9925C14.1869 14.1954 14.3513 14.3598 14.5541 14.3598H15.1826C15.3854 14.3598 15.5498 14.1954 15.5498 13.9925C15.5498 13.7897 15.3854 13.6253 15.1826 13.6253H14.5541C14.3513 13.6253 14.1869 13.7897 14.1869 13.9925Z" fill="#7BACDF"/>
<path d="M16.6967 13.9925C16.6967 14.1954 16.8611 14.3598 17.0639 14.3598H17.6923C17.8952 14.3598 18.0596 14.1954 18.0596 13.9925C18.0596 13.7897 17.8952 13.6253 17.6923 13.6253H17.0639C16.8611 13.6253 16.6967 13.7897 16.6967 13.9925Z" fill="#7BACDF"/>
<path d="M19.2064 13.9925C19.2064 14.1954 19.3709 14.3598 19.5737 14.3598H20.2021C20.4049 14.3598 20.5694 14.1954 20.5694 13.9925C20.5694 13.7897 20.4049 13.6253 20.2021 13.6253H19.5737C19.3709 13.6253 19.2064 13.7897 19.2064 13.9925Z" fill="#7BACDF"/>
<path d="M4.51067 21.5434C5.10737 21.5434 5.5911 21.0597 5.5911 20.463C5.5911 19.8663 5.10737 19.3826 4.51067 19.3826C3.91396 19.3826 3.43024 19.8663 3.43024 20.463C3.43024 21.0597 3.91396 21.5434 4.51067 21.5434Z" fill="url(#paint9_linear_88_1789)"/>
<path d="M4.51073 21.5435C5.10743 21.5435 5.59116 21.0597 5.59116 20.463H3.4303C3.4303 21.0597 3.91402 21.5435 4.51073 21.5435Z" fill="url(#paint10_linear_88_1789)"/>
<path d="M7.7005 20.4631C7.7005 20.6659 7.86493 20.8303 8.06776 20.8303H11.6036C11.8065 20.8303 11.9709 20.6659 11.9709 20.4631C11.9709 20.2603 11.8065 20.0958 11.6036 20.0958H8.06776C7.86493 20.0958 7.7005 20.2603 7.7005 20.4631Z" fill="#7BACDF"/>
<path d="M14.1869 20.4631C14.1869 20.6659 14.3513 20.8303 14.5541 20.8303H15.1826C15.3854 20.8303 15.5498 20.6659 15.5498 20.4631C15.5498 20.2603 15.3854 20.0958 15.1826 20.0958H14.5541C14.3513 20.0958 14.1869 20.2603 14.1869 20.4631Z" fill="#7BACDF"/>
<path d="M16.6967 20.4631C16.6967 20.6659 16.8611 20.8303 17.0639 20.8303H17.6923C17.8952 20.8303 18.0596 20.6659 18.0596 20.4631C18.0596 20.2603 17.8952 20.0958 17.6923 20.0958H17.0639C16.8611 20.0958 16.6967 20.2603 16.6967 20.4631Z" fill="#7BACDF"/>
<path d="M19.2064 20.4631C19.2064 20.6659 19.3709 20.8303 19.5737 20.8303H20.2021C20.4049 20.8303 20.5694 20.6659 20.5694 20.4631C20.5694 20.2603 20.4049 20.0958 20.2021 20.0958H19.5737C19.3709 20.0958 19.2064 20.2603 19.2064 20.4631Z" fill="#7BACDF"/>
<path d="M4.51067 18.2452C5.10737 18.2452 5.5911 17.7615 5.5911 17.1648C5.5911 16.5681 5.10737 16.0844 4.51067 16.0844C3.91396 16.0844 3.43024 16.5681 3.43024 17.1648C3.43024 17.7615 3.91396 18.2452 4.51067 18.2452Z" fill="url(#paint11_linear_88_1789)"/>
<path d="M4.51073 18.2452C5.10743 18.2452 5.59116 17.7615 5.59116 17.1648H3.4303C3.4303 17.7615 3.91402 18.2452 4.51073 18.2452Z" fill="url(#paint12_linear_88_1789)"/>
<path d="M7.7005 17.1649C7.7005 17.3677 7.86493 17.5321 8.06776 17.5321H11.6036C11.8065 17.5321 11.9709 17.3677 11.9709 17.1649C11.9709 16.962 11.8065 16.7976 11.6036 16.7976H8.06776C7.86493 16.7976 7.7005 16.962 7.7005 17.1649Z" fill="#7BACDF"/>
<path d="M14.1869 17.1649C14.1869 17.3677 14.3513 17.5321 14.5541 17.5321H15.1826C15.3854 17.5321 15.5498 17.3677 15.5498 17.1649C15.5498 16.962 15.3854 16.7976 15.1826 16.7976H14.5541C14.3513 16.7976 14.1869 16.962 14.1869 17.1649Z" fill="#7BACDF"/>
<path d="M16.6967 17.1649C16.6967 17.3677 16.8611 17.5321 17.0639 17.5321H17.6923C17.8952 17.5321 18.0596 17.3677 18.0596 17.1649C18.0596 16.962 17.8952 16.7976 17.6923 16.7976H17.0639C16.8611 16.7976 16.6967 16.962 16.6967 17.1649Z" fill="#7BACDF"/>
<path d="M19.2064 17.1649C19.2064 17.3677 19.3709 17.5321 19.5737 17.5321H20.2021C20.4049 17.5321 20.5694 17.3677 20.5694 17.1649C20.5694 16.962 20.4049 16.7976 20.2021 16.7976H19.5737C19.3709 16.7976 19.2064 16.962 19.2064 17.1649Z" fill="#7BACDF"/>
<path d="M4.51067 11.7982C5.10737 11.7982 5.5911 11.3145 5.5911 10.7178C5.5911 10.1211 5.10737 9.63736 4.51067 9.63736C3.91396 9.63736 3.43024 10.1211 3.43024 10.7178C3.43024 11.3145 3.91396 11.7982 4.51067 11.7982Z" fill="url(#paint13_linear_88_1789)"/>
<path d="M4.51073 11.7981C5.10743 11.7981 5.59116 11.3143 5.59116 10.7176H3.4303C3.4303 11.3143 3.91402 11.7981 4.51073 11.7981Z" fill="url(#paint14_linear_88_1789)"/>
<path d="M7.7005 10.7177C7.7005 10.9205 7.86493 11.0849 8.06776 11.0849H11.6036C11.8065 11.0849 11.9709 10.9205 11.9709 10.7177C11.9709 10.5148 11.8065 10.3504 11.6036 10.3504H8.06776C7.86493 10.3504 7.7005 10.5148 7.7005 10.7177Z" fill="#7BACDF"/>
<path d="M14.1869 10.7177C14.1869 10.9205 14.3513 11.0849 14.5541 11.0849H15.1826C15.3854 11.0849 15.5498 10.9205 15.5498 10.7177C15.5498 10.5149 15.3854 10.3504 15.1826 10.3504H14.5541C14.3513 10.3504 14.1869 10.5149 14.1869 10.7177Z" fill="#7BACDF"/>
<path d="M16.6967 10.7177C16.6967 10.9205 16.8611 11.0849 17.0639 11.0849H17.6923C17.8952 11.0849 18.0596 10.9205 18.0596 10.7177C18.0596 10.5149 17.8952 10.3504 17.6923 10.3504H17.0639C16.8611 10.3504 16.6967 10.5149 16.6967 10.7177Z" fill="#7BACDF"/>
<path d="M19.2064 10.7177C19.2064 10.9205 19.3709 11.0849 19.5737 11.0849H20.2021C20.4049 11.0849 20.5694 10.9205 20.5694 10.7177C20.5694 10.5149 20.4049 10.3504 20.2021 10.3504H19.5737C19.3709 10.3504 19.2064 10.5149 19.2064 10.7177Z" fill="#7BACDF"/>
<defs>
<linearGradient id="paint0_linear_88_1789" x1="4.66667" y1="4.66676" x2="20.2058" y2="20.2059" gradientUnits="userSpaceOnUse">
<stop stop-color="#EAF6FF"/>
<stop offset="1" stop-color="#B3DAFE"/>
</linearGradient>
<linearGradient id="paint1_linear_88_1789" x1="11.517" y1="5.94198" x2="13.9484" y2="29.9812" gradientUnits="userSpaceOnUse">
<stop stop-color="#8AC9FE" stop-opacity="0"/>
<stop offset="0.0634" stop-color="#85C2F3" stop-opacity="0.063"/>
<stop offset="0.3677" stop-color="#70A3C3" stop-opacity="0.368"/>
<stop offset="0.6362" stop-color="#608CA0" stop-opacity="0.636"/>
<stop offset="0.8561" stop-color="#577E8B" stop-opacity="0.856"/>
<stop offset="1" stop-color="#537983"/>
</linearGradient>
<linearGradient id="paint2_linear_88_1789" x1="11.517" y1="12.389" x2="13.9484" y2="36.4282" gradientUnits="userSpaceOnUse">
<stop stop-color="#8AC9FE" stop-opacity="0"/>
<stop offset="0.0634" stop-color="#85C2F3" stop-opacity="0.063"/>
<stop offset="0.3677" stop-color="#70A3C3" stop-opacity="0.368"/>
<stop offset="0.6362" stop-color="#608CA0" stop-opacity="0.636"/>
<stop offset="0.8561" stop-color="#577E8B" stop-opacity="0.856"/>
<stop offset="1" stop-color="#537983"/>
</linearGradient>
<linearGradient id="paint3_linear_88_1789" x1="12" y1="20.4707" x2="12" y2="22.4022" gradientUnits="userSpaceOnUse">
<stop stop-color="#8AC9FE" stop-opacity="0"/>
<stop offset="0.0634" stop-color="#85C2F3" stop-opacity="0.063"/>
<stop offset="0.3677" stop-color="#70A3C3" stop-opacity="0.368"/>
<stop offset="0.6362" stop-color="#608CA0" stop-opacity="0.636"/>
<stop offset="0.8561" stop-color="#577E8B" stop-opacity="0.856"/>
<stop offset="1" stop-color="#537983"/>
</linearGradient>
<linearGradient id="paint4_linear_88_1789" x1="11.7938" y1="2.65801" x2="12.4213" y2="7.91292" gradientUnits="userSpaceOnUse">
<stop stop-color="#FE93BB"/>
<stop offset="1" stop-color="#814AA0"/>
</linearGradient>
<linearGradient id="paint5_linear_88_1789" x1="4.18075" y1="7.19202" x2="5.40212" y2="8.41339" gradientUnits="userSpaceOnUse">
<stop stop-color="#FD4755"/>
<stop offset="1" stop-color="#D2024E"/>
</linearGradient>
<linearGradient id="paint6_linear_88_1789" x1="4.51073" y1="7.6642" x2="4.51073" y2="8.71738" gradientUnits="userSpaceOnUse">
<stop stop-color="#C00148" stop-opacity="0"/>
<stop offset="1" stop-color="#6D3326"/>
</linearGradient>
<linearGradient id="paint7_linear_88_1789" x1="3.58016" y1="13.062" x2="4.61875" y2="14.1006" gradientUnits="userSpaceOnUse">
<stop stop-color="#FEE97D"/>
<stop offset="1" stop-color="#FAC600"/>
</linearGradient>
<linearGradient id="paint8_linear_88_1789" x1="4.51073" y1="14.1348" x2="4.51073" y2="15.188" gradientUnits="userSpaceOnUse">
<stop stop-color="#FAC600" stop-opacity="0"/>
<stop offset="0.6899" stop-color="#D68C3D" stop-opacity="0.69"/>
<stop offset="1" stop-color="#C5715A"/>
</linearGradient>
<linearGradient id="paint9_linear_88_1789" x1="4.01408" y1="19.9665" x2="4.79937" y2="20.7517" gradientUnits="userSpaceOnUse">
<stop stop-color="#C5715A"/>
<stop offset="1" stop-color="#883F2E"/>
</linearGradient>
<linearGradient id="paint10_linear_88_1789" x1="4.51073" y1="20.6054" x2="4.51073" y2="21.6586" gradientUnits="userSpaceOnUse">
<stop stop-color="#883F2E" stop-opacity="0"/>
<stop offset="1" stop-color="#6D3326"/>
</linearGradient>
<linearGradient id="paint11_linear_88_1789" x1="4.03577" y1="16.6899" x2="5.32012" y2="17.9742" gradientUnits="userSpaceOnUse">
<stop stop-color="#8BC727"/>
<stop offset="1" stop-color="#017B4E"/>
</linearGradient>
<linearGradient id="paint12_linear_88_1789" x1="4.51073" y1="17.3071" x2="4.51073" y2="18.3603" gradientUnits="userSpaceOnUse">
<stop stop-color="#017B4E" stop-opacity="0"/>
<stop offset="1" stop-color="#026841"/>
</linearGradient>
<linearGradient id="paint13_linear_88_1789" x1="4.23969" y1="10.4468" x2="5.56412" y2="11.7712" gradientUnits="userSpaceOnUse">
<stop stop-color="#26A6FE"/>
<stop offset="1" stop-color="#2740B0"/>
</linearGradient>
<linearGradient id="paint14_linear_88_1789" x1="4.51073" y1="10.86" x2="4.51073" y2="11.9131" gradientUnits="userSpaceOnUse">
<stop stop-color="#2740B0" stop-opacity="0"/>
<stop offset="1" stop-color="#192A7D"/>
</linearGradient>
</defs>
</svg>
