<svg width="24" height="24" viewBox="0 0 24 24" fill="none" xmlns="http://www.w3.org/2000/svg">
<path d="M21.1667 5.75024C21.1667 5.05989 20.607 4.50024 19.9167 4.50024H16.77C16.2434 3.00638 14.8339 2.00532 13.25 2.00024H10.75C9.16605 2.00532 7.75656 3.00638 7.22999 4.50024H4.08331C3.39296 4.50024 2.83331 5.05989 2.83331 5.75024C2.83331 6.4406 3.39296 7.00024 4.08331 7.00024H4.49999V17.4169C4.49999 19.9482 6.55202 22.0002 9.08331 22.0002H14.9166C17.448 22.0002 19.5 19.9482 19.5 17.4169V7.00024H19.9167C20.607 7.00024 21.1667 6.4406 21.1667 5.75024ZM17 17.4169C17 18.5675 16.0673 19.5002 14.9167 19.5002H9.08331C7.93273 19.5002 6.99999 18.5675 6.99999 17.4169V7.00024H17V17.4169Z" fill="#DA2B2D"/>
<path d="M9.91663 17.0002C10.607 17.0002 11.1666 16.4406 11.1666 15.7502V10.7502C11.1666 10.0599 10.607 9.50024 9.91663 9.50024C9.22627 9.50024 8.66663 10.0599 8.66663 10.7502V15.7502C8.66663 16.4406 9.22627 17.0002 9.91663 17.0002Z" fill="#DA2B2D"/>
<path d="M14.0833 17.0002C14.7737 17.0002 15.3333 16.4406 15.3333 15.7502V10.7502C15.3333 10.0599 14.7737 9.50024 14.0833 9.50024C13.393 9.50024 12.8333 10.0599 12.8333 10.7502V15.7502C12.8333 16.4406 13.393 17.0002 14.0833 17.0002Z" fill="#DA2B2D"/>
</svg>
