<svg width="24" height="24" viewBox="0 0 24 24" fill="none" xmlns="http://www.w3.org/2000/svg">
<path d="M17 2.00003H9C8.20435 2.00003 7.44129 2.3161 6.87868 2.87871C6.31607 3.44132 6 4.20438 6 5.00003V8.00003C6 8.26525 6.10536 8.5196 6.29289 8.70714C6.48043 8.89467 6.73478 9.00003 7 9.00003C7.26522 9.00003 7.51957 8.89467 7.70711 8.70714C7.89464 8.5196 8 8.26525 8 8.00003V5.00003C8 4.73481 8.10536 4.48046 8.29289 4.29292C8.48043 4.10538 8.73478 4.00003 9 4.00003H17C17.2652 4.00003 17.5196 4.10538 17.7071 4.29292C17.8946 4.48046 18 4.73481 18 5.00003V19C18 19.2652 17.8946 19.5196 17.7071 19.7071C17.5196 19.8947 17.2652 20 17 20H9C8.73478 20 8.48043 19.8947 8.29289 19.7071C8.10536 19.5196 8 19.2652 8 19V16C8 15.7348 7.89464 15.4805 7.70711 15.2929C7.51957 15.1054 7.26522 15 7 15C6.73478 15 6.48043 15.1054 6.29289 15.2929C6.10536 15.4805 6 15.7348 6 16V19C6 19.7957 6.31607 20.5587 6.87868 21.1214C7.44129 21.684 8.20435 22 9 22H17C17.7957 22 18.5587 21.684 19.1213 21.1214C19.6839 20.5587 20 19.7957 20 19V5.00003C20 4.20438 19.6839 3.44132 19.1213 2.87871C18.5587 2.3161 17.7957 2.00003 17 2.00003Z" fill="url(#paint0_linear_259_3164)"/>
<path d="M15.707 12.707L12.707 15.707C12.5184 15.8892 12.2658 15.99 12.0036 15.9877C11.7414 15.9854 11.4906 15.8802 11.3052 15.6948C11.1198 15.5094 11.0146 15.2586 11.0123 14.9964C11.01 14.7342 11.1108 14.4816 11.293 14.293L12.586 13H5C4.73478 13 4.48043 12.8947 4.29289 12.7071C4.10536 12.5196 4 12.2652 4 12C4 11.7348 4.10536 11.4805 4.29289 11.2929C4.48043 11.1054 4.73478 11 5 11H12.586L11.293 9.70702C11.1975 9.61478 11.1213 9.50443 11.0689 9.38243C11.0165 9.26042 10.9889 9.1292 10.9877 8.99642C10.9866 8.86365 11.0119 8.73197 11.0622 8.60907C11.1125 8.48617 11.1867 8.37452 11.2806 8.28063C11.3745 8.18674 11.4861 8.11248 11.609 8.0622C11.7319 8.01192 11.8636 7.98662 11.9964 7.98777C12.1292 7.98893 12.2604 8.01651 12.3824 8.06892C12.5044 8.12133 12.6148 8.19751 12.707 8.29302L15.707 11.293C15.8945 11.4806 15.9998 11.7349 15.9998 12C15.9998 12.2652 15.8945 12.5195 15.707 12.707Z" fill="url(#paint1_linear_259_3164)"/>
<defs>
<linearGradient id="paint0_linear_259_3164" x1="5.38" y1="19.62" x2="20.62" y2="4.38002" gradientUnits="userSpaceOnUse">
<stop stop-color="#F88CE6"/>
<stop offset="1" stop-color="#C113B0"/>
</linearGradient>
<linearGradient id="paint1_linear_259_3164" x1="6.793" y1="15.207" x2="13.207" y2="8.79302" gradientUnits="userSpaceOnUse">
<stop stop-color="#F88CE6"/>
<stop offset="1" stop-color="#C113B0"/>
</linearGradient>
</defs>
</svg>
