<svg width="25" height="25" viewBox="0 0 25 25" fill="none" xmlns="http://www.w3.org/2000/svg">
<path d="M0.5 4C0.5 2.067 2.067 0.5 4 0.5H21C22.933 0.5 24.5 2.067 24.5 4V21C24.5 22.933 22.933 24.5 21 24.5H4C2.067 24.5 0.5 22.933 0.5 21V4Z" fill="#3A52EE"/>
<path d="M0.5 4C0.5 2.067 2.067 0.5 4 0.5H21C22.933 0.5 24.5 2.067 24.5 4V21C24.5 22.933 22.933 24.5 21 24.5H4C2.067 24.5 0.5 22.933 0.5 21V4Z" stroke="#3A52EE"/>
<path fill-rule="evenodd" clip-rule="evenodd" d="M20.5455 7.7045C20.9848 8.14385 20.9848 8.85615 20.5455 9.2955L11.5455 18.2955C11.1062 18.7348 10.3939 18.7348 9.95451 18.2955L5.4545 13.7955C5.01517 13.3562 5.01517 12.6439 5.4545 12.2045C5.89385 11.7652 6.60615 11.7652 7.0455 12.2045L10.75 15.909L18.9545 7.7045C19.3939 7.26517 20.1062 7.26517 20.5455 7.7045Z" fill="white"/>
</svg>
