<svg width="16" height="20" viewBox="0 0 16 20" fill="none" xmlns="http://www.w3.org/2000/svg">
    <path
        d="M7.99994 6.99994C7.44767 6.99994 6.99994 7.44766 6.99994 7.99994C6.99994 8.55222 7.44767 8.99994 7.99994 8.99994C8.55221 8.99994 8.99994 8.55222 8.99994 7.99994C8.99994 7.44766 8.55221 6.99994 7.99994 6.99994Z"
        fill="#3A52EE" stroke="black" stroke-width="0.00064" />
    <path fill-rule="evenodd" clip-rule="evenodd"
        d="M8.00003 0C3.4696 0 3.05176e-05 3.44819 3.05176e-05 7.75C3.05176e-05 10.1605 1.12026 12.6717 2.54692 14.7793C3.98222 16.8996 5.82043 18.7488 7.44536 19.832C7.78123 20.056 8.21883 20.056 8.5547 19.832C10.1796 18.7488 12.0179 16.8996 13.4531 14.7793C14.8798 12.6717 16 10.1605 16 7.75C16 3.44819 12.5304 0 8.00003 0ZM5.00003 8C5.00003 6.34315 6.34323 5 8.00003 5C9.65683 5 11 6.34315 11 8C11 9.6568 9.65683 11 8.00003 11C6.34323 11 5.00003 9.6568 5.00003 8Z"
        fill="#3A52EE" stroke="black" stroke-width="0.00064" />
</svg>