<svg width="26" height="26" viewBox="0 0 26 26" fill="none" xmlns="http://www.w3.org/2000/svg">
<path d="M6.09091 18.3299C3.59239 18.948 2 19.8832 2 20.9298C2 22.7911 7.03679 24.3 13.25 24.3C19.4631 24.3 24.5 22.7911 24.5 20.9298C24.5 19.8832 22.9077 18.948 20.4091 18.3299M15.2955 8.95908C15.2955 10.0888 14.3796 11.0045 13.25 11.0045C12.1204 11.0045 11.2045 10.0888 11.2045 8.95908C11.2045 7.8294 12.1204 6.91362 13.25 6.91362C14.3796 6.91362 15.2955 7.8294 15.2955 8.95908ZM20.4091 8.7034C20.4091 13.05 16.3182 18.1636 13.25 20.2091C10.1818 18.1636 6.09091 13.05 6.09091 8.7034C6.09091 4.89075 9.15909 1.79999 13.25 1.79999C17.3409 1.79999 20.4091 4.89075 20.4091 8.7034Z" stroke="#666666" stroke-width="1.6" stroke-linecap="round" stroke-linejoin="round"/>
</svg>
