<svg width="24" height="24" viewBox="0 0 24 24" fill="none" xmlns="http://www.w3.org/2000/svg">
<path d="M17 22H9C8.20435 22 7.44129 21.6839 6.87868 21.1213C6.31607 20.5587 6 19.7957 6 19V16C6 15.7348 6.10536 15.4804 6.29289 15.2929C6.48043 15.1054 6.73478 15 7 15C7.26522 15 7.51957 15.1054 7.70711 15.2929C7.89464 15.4804 8 15.7348 8 16V19C8 19.2652 8.10536 19.5196 8.29289 19.7071C8.48043 19.8946 8.73478 20 9 20H17C17.2652 20 17.5196 19.8946 17.7071 19.7071C17.8946 19.5196 18 19.2652 18 19V5C18 4.73478 17.8946 4.48043 17.7071 4.29289C17.5196 4.10536 17.2652 4 17 4H9C8.73478 4 8.48043 4.10536 8.29289 4.29289C8.10536 4.48043 8 4.73478 8 5V8C8 8.26522 7.89464 8.51957 7.70711 8.70711C7.51957 8.89464 7.26522 9 7 9C6.73478 9 6.48043 8.89464 6.29289 8.70711C6.10536 8.51957 6 8.26522 6 8V5C6 4.20435 6.31607 3.44129 6.87868 2.87868C7.44129 2.31607 8.20435 2 9 2H17C17.7957 2 18.5587 2.31607 19.1213 2.87868C19.6839 3.44129 20 4.20435 20 5V19C20 19.7957 19.6839 20.5587 19.1213 21.1213C18.5587 21.6839 17.7957 22 17 22Z" fill="url(#paint0_linear_81_2652)"/>
<path d="M15.707 11.293L12.707 8.29301C12.5184 8.11085 12.2658 8.01006 12.0036 8.01234C11.7414 8.01461 11.4906 8.11978 11.3052 8.30519C11.1198 8.4906 11.0146 8.74141 11.0123 9.00361C11.01 9.26581 11.1108 9.51841 11.293 9.70701L12.586 11H5C4.73478 11 4.48043 11.1054 4.29289 11.2929C4.10536 11.4804 4 11.7348 4 12C4 12.2652 4.10536 12.5196 4.29289 12.7071C4.48043 12.8947 4.73478 13 5 13H12.586L11.293 14.293C11.1975 14.3853 11.1213 14.4956 11.0689 14.6176C11.0165 14.7396 10.9889 14.8708 10.9877 15.0036C10.9866 15.1364 11.0119 15.2681 11.0622 15.391C11.1125 15.5139 11.1867 15.6255 11.2806 15.7194C11.3745 15.8133 11.4861 15.8875 11.609 15.9378C11.7319 15.9881 11.8636 16.0134 11.9964 16.0123C12.1292 16.0111 12.2604 15.9835 12.3824 15.9311C12.5044 15.8787 12.6148 15.8025 12.707 15.707L15.707 12.707C15.8945 12.5195 15.9998 12.2652 15.9998 12C15.9998 11.7348 15.8945 11.4805 15.707 11.293Z" fill="url(#paint1_linear_81_2652)"/>
<defs>
<linearGradient id="paint0_linear_81_2652" x1="5.38" y1="4.38" x2="20.62" y2="19.62" gradientUnits="userSpaceOnUse">
<stop stop-color="#6BE8A7"/>
<stop offset="1" stop-color="#01B59C"/>
</linearGradient>
<linearGradient id="paint1_linear_81_2652" x1="6.793" y1="8.79301" x2="13.207" y2="15.207" gradientUnits="userSpaceOnUse">
<stop stop-color="#6BE8A7"/>
<stop offset="1" stop-color="#01B59C"/>
</linearGradient>
</defs>
</svg>
