<svg width="24" height="24" viewBox="0 0 24 24" fill="none" xmlns="http://www.w3.org/2000/svg">
<path d="M3.09927 12.5118L6.06757 14.7502L4.94029 18.3548C4.75811 18.9139 4.7558 19.5187 4.93371 20.0793C5.11161 20.6398 5.46019 21.126 5.9275 21.4653C6.38679 21.8155 6.94338 22.0031 7.51433 22.0001C8.08528 21.9972 8.64002 21.8038 9.0959 21.4489L11.9983 19.2433L14.9016 21.4463C15.3601 21.7945 15.9136 21.9836 16.4828 21.9865C17.0519 21.9894 17.6072 21.8058 18.069 21.4623C18.5307 21.1187 18.875 20.6328 19.0524 20.0744C19.2299 19.5161 19.2312 18.914 19.0564 18.3548L17.9291 14.7502L20.8974 12.5118C21.3553 12.1662 21.6956 11.68 21.8699 11.1227C22.0441 10.5653 22.0434 9.96543 21.8677 9.4086C21.692 8.85177 21.3503 8.3665 20.8916 8.02212C20.4328 7.67774 19.8804 7.49186 19.3132 7.49103H15.667L14.5606 3.93032C14.3866 3.36983 14.0447 2.88088 13.5842 2.53398C13.1237 2.18708 12.5684 2.00015 11.9983 2.00015C11.4283 2.00015 10.873 2.18708 10.4125 2.53398C9.95198 2.88088 9.61008 3.36983 9.43609 3.93032L8.32965 7.49103H4.68681C4.11962 7.49186 3.56719 7.67774 3.10843 8.02212C2.64967 8.3665 2.30804 8.85177 2.13234 9.4086C1.95665 9.96543 1.95587 10.5653 2.13012 11.1227C2.30437 11.68 2.64474 12.1662 3.10261 12.5118H3.09927Z" fill="url(#paint0_linear_88_1860)"/>
<path d="M3.09927 12.5118L6.06757 14.7502L4.94029 18.3548C4.75811 18.9139 4.7558 19.5187 4.93371 20.0793C5.11161 20.6398 5.46019 21.126 5.9275 21.4653C6.38679 21.8155 6.94338 22.0031 7.51433 22.0001C8.08528 21.9972 8.64002 21.8038 9.0959 21.4489L11.9983 19.2433L14.9016 21.4463C15.3601 21.7945 15.9136 21.9836 16.4828 21.9865C17.0519 21.9894 17.6072 21.8058 18.069 21.4623C18.5307 21.1187 18.875 20.6328 19.0524 20.0744C19.2299 19.5161 19.2312 18.914 19.0564 18.3548L17.9291 14.7502L20.8974 12.5118C21.3553 12.1662 21.6956 11.68 21.8699 11.1227C22.0441 10.5653 22.0434 9.96543 21.8677 9.4086C21.692 8.85177 21.3503 8.3665 20.8916 8.02212C20.4328 7.67774 19.8804 7.49186 19.3132 7.49103H15.667L14.5606 3.93032C14.3866 3.36983 14.0447 2.88088 13.5842 2.53398C13.1237 2.18708 12.5684 2.00015 11.9983 2.00015C11.4283 2.00015 10.873 2.18708 10.4125 2.53398C9.95198 2.88088 9.61008 3.36983 9.43609 3.93032L8.32965 7.49103H4.68681C4.11962 7.49186 3.56719 7.67774 3.10843 8.02212C2.64967 8.3665 2.30804 8.85177 2.13234 9.4086C1.95665 9.96543 1.95587 10.5653 2.13012 11.1227C2.30437 11.68 2.64474 12.1662 3.10261 12.5118H3.09927Z" fill="url(#paint1_linear_88_1860)" fill-opacity="0.2"/>
<path d="M3.09927 12.5118L6.06757 14.7502L4.94029 18.3548C4.75811 18.9139 4.7558 19.5187 4.93371 20.0793C5.11161 20.6398 5.46019 21.126 5.9275 21.4653C6.38679 21.8155 6.94338 22.0031 7.51433 22.0001C8.08528 21.9972 8.64002 21.8038 9.0959 21.4489L11.9983 19.2433L14.9016 21.4463C15.3601 21.7945 15.9136 21.9836 16.4828 21.9865C17.0519 21.9894 17.6072 21.8058 18.069 21.4623C18.5307 21.1187 18.875 20.6328 19.0524 20.0744C19.2299 19.5161 19.2312 18.914 19.0564 18.3548L17.9291 14.7502L20.8974 12.5118C21.3553 12.1662 21.6956 11.68 21.8699 11.1227C22.0441 10.5653 22.0434 9.96543 21.8677 9.4086C21.692 8.85177 21.3503 8.3665 20.8916 8.02212C20.4328 7.67774 19.8804 7.49186 19.3132 7.49103H15.667L14.5606 3.93032C14.3866 3.36983 14.0447 2.88088 13.5842 2.53398C13.1237 2.18708 12.5684 2.00015 11.9983 2.00015C11.4283 2.00015 10.873 2.18708 10.4125 2.53398C9.95198 2.88088 9.61008 3.36983 9.43609 3.93032L8.32965 7.49103H4.68681C4.11962 7.49186 3.56719 7.67774 3.10843 8.02212C2.64967 8.3665 2.30804 8.85177 2.13234 9.4086C1.95665 9.96543 1.95587 10.5653 2.13012 11.1227C2.30437 11.68 2.64474 12.1662 3.10261 12.5118H3.09927Z" fill="url(#paint2_linear_88_1860)" fill-opacity="0.2"/>
<path d="M3.09927 12.5118L6.06757 14.7502L4.94029 18.3548C4.75811 18.9139 4.7558 19.5187 4.93371 20.0793C5.11161 20.6398 5.46019 21.126 5.9275 21.4653C6.38679 21.8155 6.94338 22.0031 7.51433 22.0001C8.08528 21.9972 8.64002 21.8038 9.0959 21.4489L11.9983 19.2433L14.9016 21.4463C15.3601 21.7945 15.9136 21.9836 16.4828 21.9865C17.0519 21.9894 17.6072 21.8058 18.069 21.4623C18.5307 21.1187 18.875 20.6328 19.0524 20.0744C19.2299 19.5161 19.2312 18.914 19.0564 18.3548L17.9291 14.7502L20.8974 12.5118C21.3553 12.1662 21.6956 11.68 21.8699 11.1227C22.0441 10.5653 22.0434 9.96543 21.8677 9.4086C21.692 8.85177 21.3503 8.3665 20.8916 8.02212C20.4328 7.67774 19.8804 7.49186 19.3132 7.49103H15.667L14.5606 3.93032C14.3866 3.36983 14.0447 2.88088 13.5842 2.53398C13.1237 2.18708 12.5684 2.00015 11.9983 2.00015C11.4283 2.00015 10.873 2.18708 10.4125 2.53398C9.95198 2.88088 9.61008 3.36983 9.43609 3.93032L8.32965 7.49103H4.68681C4.11962 7.49186 3.56719 7.67774 3.10843 8.02212C2.64967 8.3665 2.30804 8.85177 2.13234 9.4086C1.95665 9.96543 1.95587 10.5653 2.13012 11.1227C2.30437 11.68 2.64474 12.1662 3.10261 12.5118H3.09927Z" fill="url(#paint3_linear_88_1860)" fill-opacity="0.2"/>
<defs>
<linearGradient id="paint0_linear_88_1860" x1="12" y1="2.00015" x2="12" y2="22.0002" gradientUnits="userSpaceOnUse">
<stop stop-color="#FFD100"/>
<stop offset="1" stop-color="#FF9600"/>
</linearGradient>
<linearGradient id="paint1_linear_88_1860" x1="12" y1="2.00015" x2="12" y2="22.0002" gradientUnits="userSpaceOnUse">
<stop stop-color="#FFD100" stop-opacity="0"/>
<stop offset="1" stop-color="#FF9600"/>
</linearGradient>
<linearGradient id="paint2_linear_88_1860" x1="12" y1="2.00015" x2="12" y2="22.0002" gradientUnits="userSpaceOnUse">
<stop stop-color="#FFD100" stop-opacity="0"/>
<stop offset="1" stop-color="#FF9600"/>
</linearGradient>
<linearGradient id="paint3_linear_88_1860" x1="12" y1="2.00015" x2="12" y2="22.0002" gradientUnits="userSpaceOnUse">
<stop stop-color="#FFD100" stop-opacity="0"/>
<stop offset="1" stop-color="#FF9600"/>
</linearGradient>
</defs>
</svg>
