<svg width="24" height="24" viewBox="0 0 24 24" fill="none" xmlns="http://www.w3.org/2000/svg">
<path d="M12 2.00018C10.0222 2.00018 8.08879 2.58667 6.4443 3.68549C4.79981 4.7843 3.51808 6.34609 2.76121 8.17335C2.00433 10.0006 1.8063 12.0113 2.19215 13.9511C2.578 15.8909 3.53041 17.6727 4.92894 19.0712C6.32746 20.4698 8.10929 21.4222 10.0491 21.808C11.9889 22.1939 13.9996 21.9958 15.8268 21.239C17.6541 20.4821 19.2159 19.2004 20.3147 17.5559C21.4135 15.9114 22 13.978 22 12.0002C21.9971 9.3489 20.9426 6.80702 19.0679 4.93228C17.1932 3.05754 14.6513 2.00305 12 2.00018V2.00018ZM12 19.5002C10.5166 19.5002 9.06659 19.0603 7.83322 18.2362C6.59986 17.4121 5.63856 16.2407 5.07091 14.8703C4.50325 13.4999 4.35472 11.9919 4.64411 10.537C4.9335 9.08215 5.64781 7.74577 6.6967 6.69688C7.74559 5.64799 9.08197 4.93368 10.5368 4.64429C11.9917 4.3549 13.4997 4.50343 14.8701 5.07109C16.2406 5.63874 17.4119 6.60004 18.236 7.8334C19.0601 9.06677 19.5 10.5168 19.5 12.0002C19.4976 13.9886 18.7066 15.8948 17.3006 17.3008C15.8946 18.7068 13.9884 19.4977 12 19.5002Z" fill="#0A0A0A"/>
<path d="M11.6209 9.95457H11.3709C11.0434 9.94653 10.7246 10.0611 10.4772 10.2759C10.2298 10.4906 10.0715 10.79 10.0334 11.1154C10.0116 11.4409 10.1179 11.7621 10.3297 12.0103C10.5414 12.2585 10.8418 12.414 11.1667 12.4437V16.3187C11.1667 16.6503 11.2984 16.9682 11.5328 17.2026C11.7672 17.437 12.0852 17.5687 12.4167 17.5687C12.7482 17.5687 13.0662 17.437 13.3006 17.2026C13.535 16.9682 13.6667 16.6503 13.6667 16.3187V12.0004C13.6667 11.4578 13.4512 10.9375 13.0675 10.5538C12.6838 10.1701 12.1635 9.95457 11.6209 9.95457Z" fill="#0A0A0A"/>
<path d="M11.8585 9.05549C12.1414 9.05549 12.4178 8.97163 12.653 8.8145C12.8882 8.65737 13.0715 8.43403 13.1797 8.17273C13.2879 7.91143 13.3162 7.62391 13.2611 7.34652C13.2059 7.06912 13.0697 6.81432 12.8697 6.61433C12.6697 6.41434 12.4149 6.27815 12.1375 6.22297C11.8601 6.1678 11.5726 6.19612 11.3113 6.30435C11.05 6.41258 10.8267 6.59587 10.6695 6.83103C10.5124 7.06619 10.4285 7.34267 10.4285 7.6255C10.4284 7.81332 10.4653 7.99932 10.5372 8.17286C10.609 8.34641 10.7143 8.50409 10.8471 8.6369C10.9799 8.76971 11.1376 8.87504 11.3112 8.94687C11.4847 9.01869 11.6707 9.0556 11.8585 9.05549Z" fill="#0A0A0A"/>
</svg>
