<svg width="24" height="24" viewBox="0 0 24 24" fill="none" xmlns="http://www.w3.org/2000/svg">
<g clip-path="url(#clip0_88_2468)">
<path d="M6.09764 0.00012207C4.72547 0.00012207 3.70795 1.27789 4.02047 2.61401C4.59042 5.05043 4.87537 7.48686 4.87537 9.92333C4.87537 12.3597 4.59042 14.7962 4.02047 17.2326C3.7079 18.5688 4.72542 19.8465 6.09764 19.8465H18.0228C19.2405 19.8465 20.3094 19.0239 20.6086 17.8435C21.2778 15.2035 21.6124 12.5634 21.6124 9.92333C21.6124 7.28328 21.2778 4.64318 20.6086 2.00314C20.3094 0.822731 19.2405 0.00012207 18.0228 0.00012207L6.09764 0.00012207Z" fill="url(#paint0_linear_88_2468)"/>
<path d="M2.77873 2.43767C1.40651 2.43767 0.388995 3.71543 0.701558 5.05156C1.27151 7.48798 1.55646 9.9244 1.55646 12.3609C1.55646 14.7973 1.27151 17.2337 0.701558 19.6701C0.388995 21.0063 1.40651 22.284 2.77873 22.284H14.7039C15.9216 22.284 16.9905 21.4614 17.2897 20.281C17.9589 17.641 18.2935 15.0009 18.2935 12.3608C18.2935 9.72078 17.9589 7.08068 17.2897 4.44064C16.9905 3.26023 15.9217 2.43762 14.7039 2.43762L2.77873 2.43767Z" fill="url(#paint1_linear_88_2468)"/>
<path d="M9.73088 12.0723C9.28341 11.8488 8.73844 12.0732 8.58497 12.5493C8.48203 12.8686 8.41707 13.2051 8.39555 13.5538C8.27499 15.5075 8.52028 17.3438 9.12464 19.0116C9.56241 20.2197 10.1855 21.3183 10.9737 22.284H14.7039C15.9259 22.284 16.9927 21.4546 17.2925 20.27C17.8507 18.0649 18.1745 15.8599 18.2658 13.6549C18.2658 13.6549 12.0538 14.0987 10.1445 13.0594C10.2676 12.6726 10.0941 12.2537 9.73088 12.0723Z" fill="#B8BFC7"/>
<path d="M14.6139 14.7779H4.92999C4.63224 14.7779 4.39093 14.5366 4.39093 14.2389C4.39093 13.9411 4.63224 13.6998 4.92999 13.6998H14.6139C14.9116 13.6998 15.153 13.9411 15.153 14.2389C15.153 14.5366 14.9116 14.7779 14.6139 14.7779Z" fill="#81878C"/>
<path d="M14.6139 18.1791H4.92999C4.63224 18.1791 4.39093 17.9378 4.39093 17.64C4.39093 17.3423 4.63224 17.101 4.92999 17.101H14.6139C14.9116 17.101 15.153 17.3423 15.153 17.64C15.153 17.9378 14.9116 18.1791 14.6139 18.1791Z" fill="#81878C"/>
<path d="M14.6139 11.3768H4.92999C4.63224 11.3768 4.39093 11.1355 4.39093 10.8377C4.39093 10.54 4.63224 10.2986 4.92999 10.2986H14.6139C14.9116 10.2986 15.153 10.54 15.153 10.8377C15.153 11.1355 14.9116 11.3768 14.6139 11.3768Z" fill="#81878C"/>
<path d="M21.7298 18.1211C22.2196 16.7771 22.4072 15.2838 22.3105 13.7182C22.2628 12.9446 21.6149 12.3471 20.8397 12.3521C19.4026 12.3612 18.5116 11.9297 17.4467 11.2732C16.9773 10.9838 16.3843 10.9838 15.9149 11.2732C14.8501 11.9297 13.9591 12.3612 12.5219 12.3521C11.7469 12.3471 11.0988 12.9443 11.0511 13.7178C10.9548 15.2773 11.1405 16.7652 11.626 18.1052C12.3111 19.9957 13.5932 21.5918 15.5228 22.679C16.2418 23.0842 17.119 23.0845 17.8382 22.6794C19.7627 21.5952 21.0432 20.0049 21.7298 18.1211Z" fill="url(#paint2_linear_88_2468)"/>
<path d="M16.681 24.0001C16.1074 24.0001 15.5338 23.856 15.0222 23.5677C12.9658 22.409 11.4598 20.6403 10.6671 18.4527C10.1398 16.9972 9.92642 15.383 10.0331 13.6549C10.1121 12.3755 11.1687 11.332 12.5284 11.332C13.6631 11.3383 14.3514 11.0388 15.3796 10.4049C16.1823 9.90998 17.1795 9.91002 17.9821 10.4049C19.015 11.0417 19.6763 11.332 20.8495 11.332C22.1608 11.332 23.2482 12.3495 23.3287 13.6554C23.4358 15.3905 23.2203 17.0105 22.6882 18.4704C21.8938 20.6499 20.3899 22.4126 18.3389 23.568C17.8276 23.8561 17.2543 24.0001 16.681 24.0001ZM12.0692 13.7806C11.9799 15.2283 12.1535 16.5664 12.5851 17.7577C13.2182 19.5047 14.375 20.8615 16.0235 21.7904C16.4289 22.0188 16.9324 22.0189 17.3375 21.7907C18.9817 20.8644 20.1371 19.5121 20.7714 17.7719C21.2068 16.5771 21.3822 15.2345 21.2924 13.7811C21.2772 13.534 21.0548 13.3617 20.8462 13.3721C19.2479 13.3817 18.2031 12.9378 16.9115 12.1415C16.7692 12.0539 16.5925 12.0538 16.4501 12.1415C15.1621 12.9356 14.1165 13.3816 12.5154 13.3721C12.2708 13.3721 12.0831 13.5566 12.0692 13.7806Z" fill="url(#paint3_linear_88_2468)"/>
<path d="M16.0878 18.832C15.9499 18.832 15.8119 18.7793 15.7066 18.6741L14.2814 17.2488C14.0708 17.0383 14.0708 16.697 14.2814 16.4865C14.4918 16.276 14.8331 16.276 15.0437 16.4865L16.0878 17.5305L18.5572 15.0611C18.7676 14.8507 19.1089 14.8507 19.3195 15.0611C19.53 15.2717 19.53 15.613 19.3195 15.8235L16.469 18.674C16.3638 18.7793 16.2258 18.832 16.0878 18.832Z" fill="white"/>
</g>
<defs>
<linearGradient id="paint0_linear_88_2468" x1="12.7881" y1="12.0588" x2="12.7881" y2="-8.45182" gradientUnits="userSpaceOnUse">
<stop stop-color="#C1CACA"/>
<stop offset="1" stop-color="#E4E4E4"/>
</linearGradient>
<linearGradient id="paint1_linear_88_2468" x1="9.4691" y1="22.284" x2="9.4691" y2="-1.04318" gradientUnits="userSpaceOnUse">
<stop stop-color="#CFD9D9"/>
<stop offset="1" stop-color="#F0F0F0"/>
</linearGradient>
<linearGradient id="paint2_linear_88_2468" x1="16.6808" y1="23.7984" x2="16.6808" y2="13.1967" gradientUnits="userSpaceOnUse">
<stop stop-color="#4FE385"/>
<stop offset="1" stop-color="#B8E8A5"/>
</linearGradient>
<linearGradient id="paint3_linear_88_2468" x1="16.6808" y1="23.4726" x2="16.6808" y2="9.50629" gradientUnits="userSpaceOnUse">
<stop stop-color="#00C455"/>
<stop offset="1" stop-color="#99D780"/>
</linearGradient>
<clipPath id="clip0_88_2468">
<rect width="24" height="24" fill="white"/>
</clipPath>
</defs>
</svg>
